<svg xmlns="http://www.w3.org/2000/svg" xmlns:xlink="http://www.w3.org/1999/xlink" width="500" zoomAndPan="magnify" viewBox="0 0 375 374.999991" height="500" preserveAspectRatio="xMidYMid meet" version="1.0"><defs><clipPath id="7cc96cac04"><path d="M 230 102 L 315.410156 102 L 315.410156 188 L 230 188 Z M 230 102 " clip-rule="nonzero"/></clipPath><clipPath id="1f0689f6c8"><path d="M 59.660156 76 L 145 76 L 145 162 L 59.660156 162 Z M 59.660156 76 " clip-rule="nonzero"/></clipPath></defs><path fill="#075985" d="M 187.535156 323.863281 C 182.828125 323.863281 179.007812 327.679688 179.007812 332.386719 C 179.007812 337.089844 182.828125 340.90625 187.535156 340.90625 C 192.242188 340.90625 196.058594 337.089844 196.058594 332.386719 C 196.058594 327.679688 192.242188 323.863281 187.535156 323.863281 Z M 144.910156 332.386719 C 144.910156 308.851562 163.992188 289.773438 187.535156 289.773438 C 211.074219 289.773438 230.160156 308.851562 230.160156 332.386719 C 230.160156 355.917969 211.074219 375 187.535156 375 C 163.992188 375 144.910156 355.917969 144.910156 332.386719 Z M 144.910156 332.386719 " fill-opacity="1" fill-rule="evenodd"/><path fill="#075985" d="M 187.535156 34.09375 C 182.828125 34.09375 179.007812 37.90625 179.007812 42.613281 C 179.007812 47.320312 182.828125 51.136719 187.535156 51.136719 C 192.242188 51.136719 196.058594 47.320312 196.058594 42.613281 C 196.058594 37.90625 192.242188 34.09375 187.535156 34.09375 Z M 144.910156 42.613281 C 144.910156 19.082031 163.992188 0 187.535156 0 C 211.074219 0 230.160156 19.082031 230.160156 42.613281 C 230.160156 66.148438 211.074219 85.226562 187.535156 85.226562 C 163.992188 85.226562 144.910156 66.148438 144.910156 42.613281 Z M 144.910156 42.613281 " fill-opacity="1" fill-rule="evenodd"/><g clip-path="url(#7cc96cac04)"><path fill="#075985" d="M 272.785156 136.363281 C 268.078125 136.363281 264.257812 140.179688 264.257812 144.886719 C 264.257812 149.59375 268.078125 153.410156 272.785156 153.410156 C 277.492188 153.410156 281.308594 149.59375 281.308594 144.886719 C 281.308594 140.179688 277.492188 136.363281 272.785156 136.363281 Z M 230.160156 144.886719 C 230.160156 121.351562 249.242188 102.273438 272.785156 102.273438 C 296.324219 102.273438 315.410156 121.351562 315.410156 144.886719 C 315.410156 168.421875 296.324219 187.5 272.785156 187.5 C 249.242188 187.5 230.160156 168.421875 230.160156 144.886719 Z M 230.160156 144.886719 " fill-opacity="1" fill-rule="evenodd"/></g><path fill="#075985" d="M 170.484375 68.183594 L 204.585938 68.183594 L 204.585938 306.816406 L 170.484375 306.816406 Z M 170.484375 68.183594 " fill-opacity="1" fill-rule="evenodd"/><path fill="#075985" d="M 289.835938 170.453125 L 289.835938 204.546875 C 289.835938 232.789062 266.933594 255.679688 238.683594 255.679688 L 187.535156 255.679688 L 187.535156 221.589844 L 238.683594 221.589844 C 248.101562 221.589844 255.734375 213.960938 255.734375 204.546875 L 255.734375 170.453125 Z M 289.835938 170.453125 " fill-opacity="1" fill-rule="evenodd"/><g clip-path="url(#1f0689f6c8)"><path fill="#075985" d="M 102.285156 110.796875 C 106.992188 110.796875 110.808594 114.613281 110.808594 119.320312 C 110.808594 124.027344 106.992188 127.839844 102.285156 127.839844 C 97.574219 127.839844 93.757812 124.027344 93.757812 119.320312 C 93.757812 114.613281 97.574219 110.796875 102.285156 110.796875 Z M 144.910156 119.320312 C 144.910156 95.785156 125.824219 76.707031 102.285156 76.707031 C 78.742188 76.707031 59.660156 95.785156 59.660156 119.320312 C 59.660156 142.851562 78.742188 161.933594 102.285156 161.933594 C 125.824219 161.933594 144.910156 142.851562 144.910156 119.320312 Z M 144.910156 119.320312 " fill-opacity="1" fill-rule="evenodd"/></g><path fill="#075985" d="M 85.234375 144.886719 L 85.234375 178.976562 C 85.234375 207.21875 108.136719 230.113281 136.382812 230.113281 L 187.535156 230.113281 L 187.535156 196.023438 L 136.382812 196.023438 C 126.96875 196.023438 119.335938 188.390625 119.335938 178.976562 L 119.335938 144.886719 Z M 85.234375 144.886719 " fill-opacity="1" fill-rule="evenodd"/></svg>